<mxfile host="app.diagrams.net" agent="Mozilla/5.0 (Windows NT 10.0; Win64; x64; rv:130.0) Gecko/20100101 Firefox/130.0" version="24.7.16">
  <diagram name="Page-1" id="67S_ooX7_6WP4IGSNbqK">
    <mxGraphModel dx="1434" dy="774" grid="1" gridSize="10" guides="1" tooltips="1" connect="1" arrows="1" fold="1" page="1" pageScale="1" pageWidth="850" pageHeight="1100" math="0" shadow="0">
      <root>
        <mxCell id="0" />
        <mxCell id="1" parent="0" />
        <mxCell id="FDhjSRD5gk-MhCN0CJzj-38" style="edgeStyle=orthogonalEdgeStyle;rounded=0;orthogonalLoop=1;jettySize=auto;html=1;exitX=1;exitY=0;exitDx=0;exitDy=0;entryX=0;entryY=0.5;entryDx=0;entryDy=0;" edge="1" parent="1" source="FDhjSRD5gk-MhCN0CJzj-2" target="FDhjSRD5gk-MhCN0CJzj-37">
          <mxGeometry relative="1" as="geometry" />
        </mxCell>
        <mxCell id="FDhjSRD5gk-MhCN0CJzj-2" value="Member" style="rounded=0;whiteSpace=wrap;html=1;fillColor=#1ba1e2;fontColor=#ffffff;strokeColor=#006EAF;" vertex="1" parent="1">
          <mxGeometry x="230" y="290" width="130" height="60" as="geometry" />
        </mxCell>
        <mxCell id="FDhjSRD5gk-MhCN0CJzj-16" style="edgeStyle=orthogonalEdgeStyle;rounded=0;orthogonalLoop=1;jettySize=auto;html=1;exitX=1;exitY=0.5;exitDx=0;exitDy=0;entryX=0;entryY=0.75;entryDx=0;entryDy=0;" edge="1" parent="1" source="FDhjSRD5gk-MhCN0CJzj-3" target="FDhjSRD5gk-MhCN0CJzj-2">
          <mxGeometry relative="1" as="geometry" />
        </mxCell>
        <mxCell id="FDhjSRD5gk-MhCN0CJzj-3" value="name" style="ellipse;whiteSpace=wrap;html=1;fillColor=#fa6800;fontColor=#000000;strokeColor=#C73500;" vertex="1" parent="1">
          <mxGeometry x="20" y="350" width="120" height="60" as="geometry" />
        </mxCell>
        <mxCell id="FDhjSRD5gk-MhCN0CJzj-15" style="edgeStyle=orthogonalEdgeStyle;rounded=0;orthogonalLoop=1;jettySize=auto;html=1;exitX=1;exitY=0.5;exitDx=0;exitDy=0;entryX=0;entryY=0.25;entryDx=0;entryDy=0;" edge="1" parent="1" source="FDhjSRD5gk-MhCN0CJzj-4" target="FDhjSRD5gk-MhCN0CJzj-2">
          <mxGeometry relative="1" as="geometry" />
        </mxCell>
        <mxCell id="FDhjSRD5gk-MhCN0CJzj-4" value="adress" style="ellipse;whiteSpace=wrap;html=1;fillColor=#fa6800;fontColor=#000000;strokeColor=#C73500;" vertex="1" parent="1">
          <mxGeometry x="20" y="230" width="120" height="60" as="geometry" />
        </mxCell>
        <mxCell id="FDhjSRD5gk-MhCN0CJzj-18" style="edgeStyle=orthogonalEdgeStyle;rounded=0;orthogonalLoop=1;jettySize=auto;html=1;exitX=1;exitY=0.5;exitDx=0;exitDy=0;entryX=0;entryY=0;entryDx=0;entryDy=0;" edge="1" parent="1" source="FDhjSRD5gk-MhCN0CJzj-5" target="FDhjSRD5gk-MhCN0CJzj-2">
          <mxGeometry relative="1" as="geometry" />
        </mxCell>
        <mxCell id="FDhjSRD5gk-MhCN0CJzj-5" value="email" style="ellipse;whiteSpace=wrap;html=1;fillColor=#fa6800;fontColor=#000000;strokeColor=#C73500;" vertex="1" parent="1">
          <mxGeometry x="20" y="170" width="120" height="60" as="geometry" />
        </mxCell>
        <mxCell id="FDhjSRD5gk-MhCN0CJzj-14" style="edgeStyle=orthogonalEdgeStyle;rounded=0;orthogonalLoop=1;jettySize=auto;html=1;exitX=1;exitY=0.5;exitDx=0;exitDy=0;entryX=0;entryY=0.5;entryDx=0;entryDy=0;" edge="1" parent="1" source="FDhjSRD5gk-MhCN0CJzj-6" target="FDhjSRD5gk-MhCN0CJzj-2">
          <mxGeometry relative="1" as="geometry" />
        </mxCell>
        <mxCell id="FDhjSRD5gk-MhCN0CJzj-6" value="gender" style="ellipse;whiteSpace=wrap;html=1;fillColor=#fa6800;fontColor=#000000;strokeColor=#C73500;" vertex="1" parent="1">
          <mxGeometry x="20" y="290" width="120" height="60" as="geometry" />
        </mxCell>
        <mxCell id="FDhjSRD5gk-MhCN0CJzj-17" style="edgeStyle=orthogonalEdgeStyle;rounded=0;orthogonalLoop=1;jettySize=auto;html=1;exitX=1;exitY=0.5;exitDx=0;exitDy=0;entryX=0;entryY=1;entryDx=0;entryDy=0;" edge="1" parent="1" source="FDhjSRD5gk-MhCN0CJzj-7" target="FDhjSRD5gk-MhCN0CJzj-2">
          <mxGeometry relative="1" as="geometry">
            <Array as="points">
              <mxPoint x="140" y="400" />
              <mxPoint x="200" y="400" />
              <mxPoint x="200" y="350" />
            </Array>
          </mxGeometry>
        </mxCell>
        <mxCell id="FDhjSRD5gk-MhCN0CJzj-7" value="birthday" style="ellipse;whiteSpace=wrap;html=1;fillColor=#fa6800;fontColor=#000000;strokeColor=#C73500;" vertex="1" parent="1">
          <mxGeometry x="20" y="410" width="120" height="60" as="geometry" />
        </mxCell>
        <mxCell id="FDhjSRD5gk-MhCN0CJzj-20" style="edgeStyle=orthogonalEdgeStyle;rounded=0;orthogonalLoop=1;jettySize=auto;html=1;exitX=0;exitY=0.5;exitDx=0;exitDy=0;entryX=0;entryY=1;entryDx=0;entryDy=0;" edge="1" parent="1" source="FDhjSRD5gk-MhCN0CJzj-19" target="FDhjSRD5gk-MhCN0CJzj-2">
          <mxGeometry relative="1" as="geometry">
            <Array as="points">
              <mxPoint x="230" y="435" />
            </Array>
          </mxGeometry>
        </mxCell>
        <mxCell id="FDhjSRD5gk-MhCN0CJzj-21" style="edgeStyle=orthogonalEdgeStyle;rounded=0;orthogonalLoop=1;jettySize=auto;html=1;exitX=1;exitY=0.5;exitDx=0;exitDy=0;entryX=1;entryY=1;entryDx=0;entryDy=0;" edge="1" parent="1" source="FDhjSRD5gk-MhCN0CJzj-19" target="FDhjSRD5gk-MhCN0CJzj-2">
          <mxGeometry relative="1" as="geometry">
            <Array as="points">
              <mxPoint x="360" y="400" />
              <mxPoint x="360" y="400" />
            </Array>
          </mxGeometry>
        </mxCell>
        <mxCell id="FDhjSRD5gk-MhCN0CJzj-19" value="Parents Of" style="rhombus;whiteSpace=wrap;html=1;fillColor=#008a00;strokeColor=#005700;fontColor=#ffffff;" vertex="1" parent="1">
          <mxGeometry x="235" y="410" width="115" height="50" as="geometry" />
        </mxCell>
        <mxCell id="FDhjSRD5gk-MhCN0CJzj-23" value="Parent" style="text;html=1;align=center;verticalAlign=middle;resizable=0;points=[];autosize=1;strokeColor=none;fillColor=none;" vertex="1" parent="1">
          <mxGeometry x="175" y="400" width="60" height="30" as="geometry" />
        </mxCell>
        <mxCell id="FDhjSRD5gk-MhCN0CJzj-24" value="Child" style="text;html=1;align=center;verticalAlign=middle;resizable=0;points=[];autosize=1;strokeColor=none;fillColor=none;" vertex="1" parent="1">
          <mxGeometry x="350" y="400" width="50" height="30" as="geometry" />
        </mxCell>
        <mxCell id="FDhjSRD5gk-MhCN0CJzj-72" style="edgeStyle=orthogonalEdgeStyle;rounded=0;orthogonalLoop=1;jettySize=auto;html=1;exitX=1;exitY=0.5;exitDx=0;exitDy=0;entryX=0;entryY=0.5;entryDx=0;entryDy=0;" edge="1" parent="1" source="FDhjSRD5gk-MhCN0CJzj-25" target="FDhjSRD5gk-MhCN0CJzj-71">
          <mxGeometry relative="1" as="geometry" />
        </mxCell>
        <mxCell id="FDhjSRD5gk-MhCN0CJzj-25" value="&lt;div&gt;Course&lt;/div&gt;" style="rounded=0;whiteSpace=wrap;html=1;fillColor=#1ba1e2;fontColor=#ffffff;strokeColor=#006EAF;" vertex="1" parent="1">
          <mxGeometry x="525" y="140" width="130" height="60" as="geometry" />
        </mxCell>
        <mxCell id="FDhjSRD5gk-MhCN0CJzj-30" style="edgeStyle=orthogonalEdgeStyle;rounded=0;orthogonalLoop=1;jettySize=auto;html=1;exitX=0.5;exitY=1;exitDx=0;exitDy=0;entryX=0;entryY=0;entryDx=0;entryDy=0;" edge="1" parent="1" source="FDhjSRD5gk-MhCN0CJzj-26" target="FDhjSRD5gk-MhCN0CJzj-25">
          <mxGeometry relative="1" as="geometry" />
        </mxCell>
        <mxCell id="FDhjSRD5gk-MhCN0CJzj-26" value="&lt;b&gt;&lt;u&gt;number&lt;/u&gt;&lt;/b&gt;" style="ellipse;whiteSpace=wrap;html=1;fillColor=#fa6800;fontColor=#000000;strokeColor=#C73500;" vertex="1" parent="1">
          <mxGeometry x="410" y="50" width="120" height="60" as="geometry" />
        </mxCell>
        <mxCell id="FDhjSRD5gk-MhCN0CJzj-29" style="edgeStyle=orthogonalEdgeStyle;rounded=0;orthogonalLoop=1;jettySize=auto;html=1;exitX=0.5;exitY=1;exitDx=0;exitDy=0;entryX=0.5;entryY=0;entryDx=0;entryDy=0;" edge="1" parent="1" source="FDhjSRD5gk-MhCN0CJzj-27" target="FDhjSRD5gk-MhCN0CJzj-25">
          <mxGeometry relative="1" as="geometry" />
        </mxCell>
        <mxCell id="FDhjSRD5gk-MhCN0CJzj-27" value="title&lt;u&gt;&lt;br&gt;&lt;/u&gt;" style="ellipse;whiteSpace=wrap;html=1;fillColor=#fa6800;fontColor=#000000;strokeColor=#C73500;" vertex="1" parent="1">
          <mxGeometry x="530" y="50" width="120" height="60" as="geometry" />
        </mxCell>
        <mxCell id="FDhjSRD5gk-MhCN0CJzj-31" style="edgeStyle=orthogonalEdgeStyle;rounded=0;orthogonalLoop=1;jettySize=auto;html=1;exitX=0.5;exitY=1;exitDx=0;exitDy=0;entryX=1;entryY=0;entryDx=0;entryDy=0;" edge="1" parent="1" source="FDhjSRD5gk-MhCN0CJzj-28" target="FDhjSRD5gk-MhCN0CJzj-25">
          <mxGeometry relative="1" as="geometry" />
        </mxCell>
        <mxCell id="FDhjSRD5gk-MhCN0CJzj-28" value="target grop" style="ellipse;whiteSpace=wrap;html=1;fillColor=#fa6800;fontColor=#000000;strokeColor=#C73500;" vertex="1" parent="1">
          <mxGeometry x="650" y="50" width="120" height="60" as="geometry" />
        </mxCell>
        <mxCell id="FDhjSRD5gk-MhCN0CJzj-33" style="edgeStyle=orthogonalEdgeStyle;rounded=0;orthogonalLoop=1;jettySize=auto;html=1;exitX=1;exitY=0.5;exitDx=0;exitDy=0;entryX=0.25;entryY=0;entryDx=0;entryDy=0;" edge="1" parent="1" source="FDhjSRD5gk-MhCN0CJzj-32" target="FDhjSRD5gk-MhCN0CJzj-2">
          <mxGeometry relative="1" as="geometry" />
        </mxCell>
        <mxCell id="FDhjSRD5gk-MhCN0CJzj-32" value="&lt;b&gt;&lt;u&gt;ID&lt;/u&gt;&lt;/b&gt;" style="ellipse;whiteSpace=wrap;html=1;fillColor=#fa6800;fontColor=#000000;strokeColor=#C73500;" vertex="1" parent="1">
          <mxGeometry x="20" y="110" width="120" height="60" as="geometry" />
        </mxCell>
        <mxCell id="FDhjSRD5gk-MhCN0CJzj-34" value="N" style="text;html=1;align=center;verticalAlign=middle;resizable=0;points=[];autosize=1;strokeColor=none;fillColor=none;" vertex="1" parent="1">
          <mxGeometry x="330" y="370" width="30" height="30" as="geometry" />
        </mxCell>
        <mxCell id="FDhjSRD5gk-MhCN0CJzj-35" value="1" style="text;html=1;align=center;verticalAlign=middle;resizable=0;points=[];autosize=1;strokeColor=none;fillColor=none;" vertex="1" parent="1">
          <mxGeometry x="225" y="368" width="30" height="30" as="geometry" />
        </mxCell>
        <mxCell id="FDhjSRD5gk-MhCN0CJzj-39" style="edgeStyle=orthogonalEdgeStyle;rounded=0;orthogonalLoop=1;jettySize=auto;html=1;exitX=1;exitY=0.5;exitDx=0;exitDy=0;entryX=0.25;entryY=1;entryDx=0;entryDy=0;" edge="1" parent="1" source="FDhjSRD5gk-MhCN0CJzj-37" target="FDhjSRD5gk-MhCN0CJzj-25">
          <mxGeometry relative="1" as="geometry" />
        </mxCell>
        <mxCell id="FDhjSRD5gk-MhCN0CJzj-37" value="Endroll" style="rhombus;whiteSpace=wrap;html=1;fillColor=#008a00;strokeColor=#005700;fontColor=#ffffff;" vertex="1" parent="1">
          <mxGeometry x="400" y="230" width="110" height="50" as="geometry" />
        </mxCell>
        <mxCell id="FDhjSRD5gk-MhCN0CJzj-40" value="N" style="text;html=1;align=center;verticalAlign=middle;resizable=0;points=[];autosize=1;strokeColor=none;fillColor=none;" vertex="1" parent="1">
          <mxGeometry x="525" y="230" width="30" height="30" as="geometry" />
        </mxCell>
        <mxCell id="FDhjSRD5gk-MhCN0CJzj-41" value="M" style="text;html=1;align=center;verticalAlign=middle;resizable=0;points=[];autosize=1;strokeColor=none;fillColor=none;" vertex="1" parent="1">
          <mxGeometry x="365" y="228" width="30" height="30" as="geometry" />
        </mxCell>
        <mxCell id="FDhjSRD5gk-MhCN0CJzj-50" style="edgeStyle=orthogonalEdgeStyle;rounded=0;orthogonalLoop=1;jettySize=auto;html=1;exitX=0.5;exitY=0;exitDx=0;exitDy=0;entryX=0.5;entryY=1;entryDx=0;entryDy=0;" edge="1" parent="1" source="FDhjSRD5gk-MhCN0CJzj-42" target="FDhjSRD5gk-MhCN0CJzj-49">
          <mxGeometry relative="1" as="geometry" />
        </mxCell>
        <mxCell id="FDhjSRD5gk-MhCN0CJzj-42" value="Trainer" style="rounded=0;whiteSpace=wrap;html=1;fillColor=#1ba1e2;fontColor=#ffffff;strokeColor=#006EAF;" vertex="1" parent="1">
          <mxGeometry x="525" y="500" width="130" height="60" as="geometry" />
        </mxCell>
        <mxCell id="FDhjSRD5gk-MhCN0CJzj-44" style="edgeStyle=orthogonalEdgeStyle;rounded=0;orthogonalLoop=1;jettySize=auto;html=1;exitX=0.5;exitY=0;exitDx=0;exitDy=0;entryX=0;entryY=1;entryDx=0;entryDy=0;" edge="1" parent="1" target="FDhjSRD5gk-MhCN0CJzj-42">
          <mxGeometry relative="1" as="geometry">
            <mxPoint x="460" y="620" as="sourcePoint" />
          </mxGeometry>
        </mxCell>
        <mxCell id="FDhjSRD5gk-MhCN0CJzj-43" value="&lt;u&gt;&lt;b&gt;ID&lt;/b&gt;&lt;/u&gt;" style="ellipse;whiteSpace=wrap;html=1;fillColor=#fa6800;fontColor=#000000;strokeColor=#C73500;" vertex="1" parent="1">
          <mxGeometry x="405" y="620" width="120" height="60" as="geometry" />
        </mxCell>
        <mxCell id="FDhjSRD5gk-MhCN0CJzj-45" value="&lt;div&gt;name&lt;/div&gt;" style="ellipse;whiteSpace=wrap;html=1;fillColor=#fa6800;fontColor=#000000;strokeColor=#C73500;" vertex="1" parent="1">
          <mxGeometry x="525" y="620" width="120" height="60" as="geometry" />
        </mxCell>
        <mxCell id="FDhjSRD5gk-MhCN0CJzj-48" style="edgeStyle=orthogonalEdgeStyle;rounded=0;orthogonalLoop=1;jettySize=auto;html=1;exitX=0.5;exitY=0;exitDx=0;exitDy=0;entryX=1;entryY=1;entryDx=0;entryDy=0;" edge="1" parent="1" target="FDhjSRD5gk-MhCN0CJzj-42">
          <mxGeometry relative="1" as="geometry">
            <mxPoint x="704.9999999999998" y="620" as="sourcePoint" />
          </mxGeometry>
        </mxCell>
        <mxCell id="FDhjSRD5gk-MhCN0CJzj-46" value="license" style="ellipse;whiteSpace=wrap;html=1;fillColor=#fa6800;fontColor=#000000;strokeColor=#C73500;" vertex="1" parent="1">
          <mxGeometry x="645" y="620" width="120" height="60" as="geometry" />
        </mxCell>
        <mxCell id="FDhjSRD5gk-MhCN0CJzj-47" style="edgeStyle=orthogonalEdgeStyle;rounded=0;orthogonalLoop=1;jettySize=auto;html=1;exitX=0.5;exitY=0;exitDx=0;exitDy=0;entryX=0.462;entryY=0.986;entryDx=0;entryDy=0;entryPerimeter=0;" edge="1" parent="1" source="FDhjSRD5gk-MhCN0CJzj-45" target="FDhjSRD5gk-MhCN0CJzj-42">
          <mxGeometry relative="1" as="geometry" />
        </mxCell>
        <mxCell id="FDhjSRD5gk-MhCN0CJzj-51" style="edgeStyle=orthogonalEdgeStyle;rounded=0;orthogonalLoop=1;jettySize=auto;html=1;exitX=0.5;exitY=0;exitDx=0;exitDy=0;entryX=0.5;entryY=1;entryDx=0;entryDy=0;" edge="1" parent="1" source="FDhjSRD5gk-MhCN0CJzj-49" target="FDhjSRD5gk-MhCN0CJzj-25">
          <mxGeometry relative="1" as="geometry" />
        </mxCell>
        <mxCell id="FDhjSRD5gk-MhCN0CJzj-49" value="Teaches" style="rhombus;whiteSpace=wrap;html=1;fillColor=#008a00;strokeColor=#005700;fontColor=#ffffff;" vertex="1" parent="1">
          <mxGeometry x="535" y="350" width="110" height="50" as="geometry" />
        </mxCell>
        <mxCell id="FDhjSRD5gk-MhCN0CJzj-52" value="1" style="text;html=1;align=center;verticalAlign=middle;resizable=0;points=[];autosize=1;strokeColor=none;fillColor=none;" vertex="1" parent="1">
          <mxGeometry x="595" y="448" width="30" height="30" as="geometry" />
        </mxCell>
        <mxCell id="FDhjSRD5gk-MhCN0CJzj-53" value="N" style="text;html=1;align=center;verticalAlign=middle;resizable=0;points=[];autosize=1;strokeColor=none;fillColor=none;" vertex="1" parent="1">
          <mxGeometry x="590" y="300" width="30" height="30" as="geometry" />
        </mxCell>
        <mxCell id="FDhjSRD5gk-MhCN0CJzj-64" value="Area" style="rounded=0;whiteSpace=wrap;html=1;fillColor=#1ba1e2;fontColor=#ffffff;strokeColor=#006EAF;" vertex="1" parent="1">
          <mxGeometry x="1020" y="332" width="130" height="60" as="geometry" />
        </mxCell>
        <mxCell id="FDhjSRD5gk-MhCN0CJzj-68" style="edgeStyle=orthogonalEdgeStyle;rounded=0;orthogonalLoop=1;jettySize=auto;html=1;exitX=0.5;exitY=0;exitDx=0;exitDy=0;entryX=0.25;entryY=1;entryDx=0;entryDy=0;" edge="1" parent="1" source="FDhjSRD5gk-MhCN0CJzj-66" target="FDhjSRD5gk-MhCN0CJzj-64">
          <mxGeometry relative="1" as="geometry" />
        </mxCell>
        <mxCell id="FDhjSRD5gk-MhCN0CJzj-66" value="name" style="ellipse;whiteSpace=wrap;html=1;fillColor=#fa6800;fontColor=#000000;strokeColor=#C73500;" vertex="1" parent="1">
          <mxGeometry x="960" y="440" width="120" height="60" as="geometry" />
        </mxCell>
        <mxCell id="FDhjSRD5gk-MhCN0CJzj-69" style="edgeStyle=orthogonalEdgeStyle;rounded=0;orthogonalLoop=1;jettySize=auto;html=1;exitX=0.5;exitY=0;exitDx=0;exitDy=0;entryX=0.75;entryY=1;entryDx=0;entryDy=0;" edge="1" parent="1" source="FDhjSRD5gk-MhCN0CJzj-67" target="FDhjSRD5gk-MhCN0CJzj-64">
          <mxGeometry relative="1" as="geometry" />
        </mxCell>
        <mxCell id="FDhjSRD5gk-MhCN0CJzj-67" value="description" style="ellipse;whiteSpace=wrap;html=1;fillColor=#fa6800;fontColor=#000000;strokeColor=#C73500;" vertex="1" parent="1">
          <mxGeometry x="1080" y="440" width="120" height="60" as="geometry" />
        </mxCell>
        <mxCell id="FDhjSRD5gk-MhCN0CJzj-73" style="edgeStyle=orthogonalEdgeStyle;rounded=0;orthogonalLoop=1;jettySize=auto;html=1;exitX=1;exitY=0.5;exitDx=0;exitDy=0;entryX=0.5;entryY=0;entryDx=0;entryDy=0;" edge="1" parent="1" source="FDhjSRD5gk-MhCN0CJzj-71" target="FDhjSRD5gk-MhCN0CJzj-64">
          <mxGeometry relative="1" as="geometry" />
        </mxCell>
        <mxCell id="FDhjSRD5gk-MhCN0CJzj-71" value="Belongs To" style="rhombus;whiteSpace=wrap;html=1;fillColor=#008a00;strokeColor=#005700;fontColor=#ffffff;" vertex="1" parent="1">
          <mxGeometry x="760" y="200" width="110" height="50" as="geometry" />
        </mxCell>
        <mxCell id="FDhjSRD5gk-MhCN0CJzj-74" value="N" style="text;html=1;align=center;verticalAlign=middle;resizable=0;points=[];autosize=1;strokeColor=none;fillColor=none;" vertex="1" parent="1">
          <mxGeometry x="710" y="178" width="30" height="30" as="geometry" />
        </mxCell>
        <mxCell id="FDhjSRD5gk-MhCN0CJzj-75" value="1" style="text;html=1;align=center;verticalAlign=middle;resizable=0;points=[];autosize=1;strokeColor=none;fillColor=none;" vertex="1" parent="1">
          <mxGeometry x="900" y="198" width="30" height="30" as="geometry" />
        </mxCell>
        <mxCell id="FDhjSRD5gk-MhCN0CJzj-77" style="edgeStyle=orthogonalEdgeStyle;rounded=0;orthogonalLoop=1;jettySize=auto;html=1;exitX=1;exitY=0.5;exitDx=0;exitDy=0;entryX=0;entryY=0.5;entryDx=0;entryDy=0;" edge="1" parent="1" source="FDhjSRD5gk-MhCN0CJzj-76" target="FDhjSRD5gk-MhCN0CJzj-64">
          <mxGeometry relative="1" as="geometry" />
        </mxCell>
        <mxCell id="FDhjSRD5gk-MhCN0CJzj-78" style="edgeStyle=orthogonalEdgeStyle;rounded=0;orthogonalLoop=1;jettySize=auto;html=1;exitX=0;exitY=0.5;exitDx=0;exitDy=0;entryX=1;entryY=0.5;entryDx=0;entryDy=0;" edge="1" parent="1" source="FDhjSRD5gk-MhCN0CJzj-76" target="FDhjSRD5gk-MhCN0CJzj-42">
          <mxGeometry relative="1" as="geometry" />
        </mxCell>
        <mxCell id="FDhjSRD5gk-MhCN0CJzj-76" value="Headed By" style="rhombus;whiteSpace=wrap;html=1;fillColor=#008a00;strokeColor=#005700;fontColor=#ffffff;" vertex="1" parent="1">
          <mxGeometry x="760" y="445" width="110" height="50" as="geometry" />
        </mxCell>
        <mxCell id="FDhjSRD5gk-MhCN0CJzj-79" value="1" style="text;html=1;align=center;verticalAlign=middle;resizable=0;points=[];autosize=1;strokeColor=none;fillColor=none;" vertex="1" parent="1">
          <mxGeometry x="705" y="488" width="30" height="30" as="geometry" />
        </mxCell>
        <mxCell id="FDhjSRD5gk-MhCN0CJzj-80" value="1" style="text;html=1;align=center;verticalAlign=middle;resizable=0;points=[];autosize=1;strokeColor=none;fillColor=none;" vertex="1" parent="1">
          <mxGeometry x="880" y="470" width="30" height="30" as="geometry" />
        </mxCell>
        <mxCell id="FDhjSRD5gk-MhCN0CJzj-82" style="edgeStyle=orthogonalEdgeStyle;rounded=0;orthogonalLoop=1;jettySize=auto;html=1;exitX=0;exitY=0.5;exitDx=0;exitDy=0;" edge="1" parent="1" source="FDhjSRD5gk-MhCN0CJzj-81" target="FDhjSRD5gk-MhCN0CJzj-64">
          <mxGeometry relative="1" as="geometry" />
        </mxCell>
        <mxCell id="FDhjSRD5gk-MhCN0CJzj-81" value="&lt;u&gt;&lt;b&gt;ID&lt;/b&gt;&lt;/u&gt;" style="ellipse;whiteSpace=wrap;html=1;fillColor=#fa6800;fontColor=#000000;strokeColor=#C73500;" vertex="1" parent="1">
          <mxGeometry x="1200" y="332" width="120" height="60" as="geometry" />
        </mxCell>
      </root>
    </mxGraphModel>
  </diagram>
</mxfile>
